<svg width="78" height="78" viewBox="0 0 78 78" fill="none" xmlns="http://www.w3.org/2000/svg">
<rect width="78" height="78" rx="16" fill="#00BF63"/>
<path d="M30.3201 65.4992H30.8201V64.9992V61.3564V60.8564H30.3201H18.58V18.1428H50.2202V35.8568V36.3568H50.7202H54.8003H55.3003V35.8568V17.6428V17.6422C55.299 16.5245 54.8007 15.4661 53.9371 14.695C53.0753 13.9256 51.9178 13.5011 50.7207 13.5H50.7202L18.08 13.5L18.0796 13.5C16.8825 13.5011 15.725 13.9256 14.8632 14.695C13.9996 15.4661 13.5013 16.5245 13.5 17.6422V17.6428L13.5 61.3564L13.5 61.357C13.5013 62.4747 13.9996 63.5331 14.8632 64.3042C15.725 65.0736 16.8825 65.4982 18.0796 65.4992H18.08H30.3201Z" fill="black" stroke="black"/>
<path d="M64.7358 45.1251L64.7357 45.1251L58.6157 39.6609L58.6156 39.6608C58.1361 39.2328 57.4967 39.0006 56.8404 39.0006C56.184 39.0006 55.5447 39.2328 55.0651 39.6608L55.0651 39.6609L36.1072 56.5872L35.9402 56.7363V56.9601V64.9998V65.4998H36.4402H45.4448H45.6356L45.7778 65.3728L64.7357 48.4465L64.7358 48.4464C65.217 48.0166 65.5 47.4208 65.5 46.7858C65.5 46.1508 65.217 45.5549 64.7358 45.1251ZM44.6003 34.536H45.1003V34.036V30.3931V29.8931H44.6003H40.5951C40.4423 29.4567 40.2465 29.034 40.0105 28.6298L42.7913 26.147L43.209 25.7741L42.7913 25.4011L39.9067 22.8256L39.5737 22.5283L39.2407 22.8256L36.4 25.3619C35.9207 25.1317 35.4185 24.9434 34.9002 24.7993V21.2861V20.7861H34.4002H30.3202H29.8202V21.2861V24.7993C29.3019 24.9434 28.7996 25.1317 28.3204 25.3619L25.4797 22.8256L25.1467 22.5283L24.8137 22.8256L21.9291 25.4011L21.5114 25.7741L21.9291 26.147L24.7099 28.6298C24.4739 29.034 24.2781 29.4567 24.1253 29.8931H20.1201H19.6201V30.3931V34.036V34.536H20.1201H24.1253C24.2781 34.9724 24.4739 35.3951 24.7099 35.7993L21.9291 38.2821L21.5114 38.655L21.9291 39.028L24.8137 41.6035L25.1467 41.9008L25.4797 41.6035L28.3204 39.0672C28.7996 39.2974 29.3019 39.4857 29.8202 39.6298V43.143V43.643H30.3202H34.4002H34.9002V43.143V39.6298C35.4185 39.4857 35.9207 39.2974 36.4 39.0672L39.2407 41.6035L39.5737 41.9008L39.9067 41.6035L42.7913 39.028L43.209 38.655L42.7913 38.2821L40.0105 35.7993C40.2465 35.3951 40.4423 34.9724 40.5951 34.536H44.6003ZM53.205 52.25L43.565 60.857H41.0203V58.6921L50.7203 50.0315L53.205 52.25ZM56.8404 49.0042L54.3556 46.7858L56.8404 44.5673L59.3251 46.7858L56.8404 49.0042ZM32.3595 35.3574C31.6399 35.3572 30.9403 35.1664 30.3496 34.814C29.7591 34.4617 29.308 33.9666 29.0443 33.3982C28.7811 32.8308 28.7134 32.2104 28.8466 31.6126C28.9799 31.0141 29.3109 30.4556 29.8082 30.0117C30.306 29.5672 30.9467 29.2592 31.6517 29.134C32.3567 29.0088 33.0869 29.0735 33.7481 29.318C34.4092 29.5625 34.9654 29.9733 35.3523 30.4903C35.7385 31.0064 35.9402 31.6063 35.9402 32.2143C35.9387 33.028 35.5764 33.8212 34.9104 34.4158C34.2424 35.0123 33.3259 35.3561 32.3595 35.3574Z" fill="black" stroke="black"/>
</svg>
