<svg width="149" height="59" viewBox="0 0 149 59" fill="none" xmlns="http://www.w3.org/2000/svg">
<path d="M17.862 10.592V29H12.766V21.564H6.526V29H1.404V10.592H6.526V17.482H12.766V10.592H17.862ZM29.5669 10.306C31.3002 10.306 32.8775 10.7133 34.2989 11.528C35.7375 12.3253 36.8642 13.4433 37.6789 14.882C38.5109 16.3207 38.9269 17.9413 38.9269 19.744C38.9269 21.5467 38.5109 23.1673 37.6789 24.606C36.8469 26.0447 35.7115 27.1713 34.2729 27.986C32.8515 28.7833 31.2829 29.182 29.5669 29.182C27.8509 29.182 26.2735 28.7833 24.8349 27.986C23.3962 27.1713 22.2609 26.0447 21.4289 24.606C20.5969 23.1673 20.1809 21.5467 20.1809 19.744C20.1809 17.9413 20.5969 16.3207 21.4289 14.882C22.2609 13.4433 23.3962 12.3253 24.8349 11.528C26.2735 10.7133 27.8509 10.306 29.5669 10.306ZM29.5669 15.038C28.2669 15.038 27.2442 15.4627 26.4989 16.312C25.7535 17.144 25.3809 18.288 25.3809 19.744C25.3809 21.1653 25.7535 22.3007 26.4989 23.15C27.2442 23.9993 28.2669 24.424 29.5669 24.424C30.8495 24.424 31.8635 23.9993 32.6089 23.15C33.3542 22.3007 33.7269 21.1653 33.7269 19.744C33.7269 18.288 33.3542 17.144 32.6089 16.312C31.8809 15.4627 30.8669 15.038 29.5669 15.038ZM46.3385 22.838V29H41.2165V10.592H48.8605C51.0792 10.592 52.7692 11.1553 53.9305 12.282C55.1092 13.3913 55.6985 14.882 55.6985 16.754C55.6985 17.9153 55.4385 18.9553 54.9185 19.874C54.3985 20.7927 53.6185 21.5207 52.5785 22.058C51.5558 22.578 50.3165 22.838 48.8605 22.838H46.3385ZM48.2885 18.808C49.7792 18.808 50.5245 18.1233 50.5245 16.754C50.5245 15.402 49.7792 14.726 48.2885 14.726H46.3385V18.808H48.2885ZM67.653 19.588L74.777 29H68.615L62.817 20.862V29H57.695V10.592H62.817V18.548L68.667 10.592H74.777L67.653 19.588ZM81.5807 10.592V29H76.4587V10.592H81.5807ZM101.41 29H96.288L89.528 18.73V29H84.406V10.618H89.528L96.288 21.018V10.618H101.41V29ZM117.964 23.696C117.964 24.7187 117.704 25.646 117.184 26.478C116.664 27.31 115.901 27.9687 114.896 28.454C113.891 28.9393 112.686 29.182 111.282 29.182C109.15 29.182 107.391 28.6707 106.004 27.648C104.635 26.6253 103.889 25.1693 103.768 23.28H109.202C109.254 23.9213 109.453 24.398 109.8 24.71C110.147 25.022 110.571 25.178 111.074 25.178C111.525 25.178 111.871 25.0653 112.114 24.84C112.374 24.6147 112.504 24.294 112.504 23.878C112.504 23.3233 112.253 22.8987 111.75 22.604C111.247 22.292 110.45 21.954 109.358 21.59C108.197 21.1913 107.235 20.8013 106.472 20.42C105.727 20.0387 105.077 19.4667 104.522 18.704C103.985 17.9413 103.716 16.962 103.716 15.766C103.716 14.622 104.011 13.6427 104.6 12.828C105.189 11.996 105.995 11.372 107.018 10.956C108.041 10.5227 109.202 10.306 110.502 10.306C112.617 10.306 114.298 10.8087 115.546 11.814C116.811 12.802 117.505 14.1973 117.626 16H112.14C112.071 15.428 111.889 15.0033 111.594 14.726C111.317 14.4487 110.944 14.31 110.476 14.31C110.077 14.31 109.765 14.414 109.54 14.622C109.315 14.83 109.202 15.142 109.202 15.558C109.202 16.078 109.445 16.4853 109.93 16.78C110.433 17.0747 111.213 17.404 112.27 17.768C113.431 18.184 114.393 18.5913 115.156 18.99C115.919 19.3887 116.577 19.9693 117.132 20.732C117.687 21.4947 117.964 22.4827 117.964 23.696Z" fill="#00BF63"/>
<path d="M80.6279 48.2496C121.733 20.2588 138.24 18.6426 141.355 21.3334" stroke="#BB3526" stroke-width="4"/>
<path d="M79.7738 49.1466C125.193 28.8931 141.725 30.2312 144.313 33.432" stroke="#BB3526" stroke-width="4"/>
<path d="M80.6652 51.2932C128.08 36.2958 144.355 39.4914 146.566 42.9639" stroke="#BB3526" stroke-width="4"/>
<path d="M5.352 36.352V37.248H3.792V42H2.664V37.248H1.112V36.352H5.352ZM10.1409 39.616C10.1409 39.728 10.1276 39.856 10.1009 40H6.85294C6.86894 40.3947 6.9756 40.6853 7.17294 40.872C7.37027 41.0587 7.6156 41.152 7.90894 41.152C8.17027 41.152 8.38627 41.088 8.55694 40.96C8.73294 40.832 8.84494 40.6587 8.89294 40.44H10.0849C10.0263 40.7493 9.90094 41.0267 9.70894 41.272C9.51694 41.5173 9.26894 41.7093 8.96494 41.848C8.66627 41.9867 8.33294 42.056 7.96494 42.056C7.53294 42.056 7.14894 41.9653 6.81294 41.784C6.47694 41.5973 6.2156 41.3333 6.02894 40.992C5.84227 40.6507 5.74894 40.248 5.74894 39.784C5.74894 39.32 5.84227 38.9173 6.02894 38.576C6.2156 38.2293 6.47694 37.9653 6.81294 37.784C7.14894 37.6027 7.53294 37.512 7.96494 37.512C8.40227 37.512 8.7836 37.6027 9.10894 37.784C9.4396 37.9653 9.69294 38.216 9.86894 38.536C10.0503 38.8507 10.1409 39.2107 10.1409 39.616ZM9.00494 39.504C9.02094 39.1413 8.92494 38.8667 8.71694 38.68C8.51427 38.4933 8.2636 38.4 7.96494 38.4C7.66094 38.4 7.40494 38.4933 7.19694 38.68C6.98894 38.8667 6.87427 39.1413 6.85294 39.504H9.00494ZM12.9337 37.512C13.5044 37.512 13.979 37.6667 14.3577 37.976C14.7417 38.2853 14.9817 38.7067 15.0777 39.24H13.8857C13.8377 39.0053 13.7284 38.8213 13.5577 38.688C13.387 38.5493 13.171 38.48 12.9097 38.48C12.611 38.48 12.3604 38.592 12.1577 38.816C11.9604 39.0347 11.8617 39.3573 11.8617 39.784C11.8617 40.2107 11.9604 40.536 12.1577 40.76C12.3604 40.9787 12.611 41.088 12.9097 41.088C13.171 41.088 13.387 41.0213 13.5577 40.888C13.7284 40.7493 13.8377 40.5627 13.8857 40.328H15.0777C14.9817 40.8613 14.7417 41.2827 14.3577 41.592C13.979 41.9013 13.5044 42.056 12.9337 42.056C12.5017 42.056 12.1177 41.9653 11.7817 41.784C11.4457 41.5973 11.1844 41.3333 10.9977 40.992C10.811 40.6507 10.7177 40.248 10.7177 39.784C10.7177 39.32 10.811 38.9173 10.9977 38.576C11.1844 38.2293 11.4457 37.9653 11.7817 37.784C12.1177 37.6027 12.5017 37.512 12.9337 37.512ZM18.5192 37.504C19.0312 37.504 19.4392 37.672 19.7432 38.008C20.0472 38.344 20.1992 38.816 20.1992 39.424V42H19.0792V39.552C19.0792 39.2 18.9885 38.928 18.8072 38.736C18.6259 38.5387 18.3779 38.44 18.0632 38.44C17.7432 38.44 17.4872 38.544 17.2952 38.752C17.1032 38.96 17.0072 39.2587 17.0072 39.648V42H15.8792V36.08H17.0072V38.456C17.1245 38.1573 17.3165 37.9253 17.5832 37.76C17.8552 37.5893 18.1672 37.504 18.5192 37.504ZM23.8317 37.504C24.3437 37.504 24.7517 37.672 25.0557 38.008C25.3597 38.344 25.5117 38.816 25.5117 39.424V42H24.3917V39.552C24.3917 39.2 24.301 38.928 24.1197 38.736C23.9384 38.5387 23.6904 38.44 23.3757 38.44C23.0557 38.44 22.7997 38.544 22.6077 38.752C22.4157 38.96 22.3197 39.2587 22.3197 39.648V42H21.1917V37.568H22.3197V38.456C22.437 38.1573 22.629 37.9253 22.8957 37.76C23.1677 37.5893 23.4797 37.504 23.8317 37.504ZM26.3762 36.296C26.3762 36.1147 26.4402 35.968 26.5682 35.856C26.6962 35.7387 26.8642 35.68 27.0722 35.68C27.2802 35.68 27.4482 35.7387 27.5762 35.856C27.7042 35.968 27.7682 36.1147 27.7682 36.296C27.7682 36.472 27.7042 36.6187 27.5762 36.736C27.4482 36.848 27.2802 36.904 27.0722 36.904C26.8642 36.904 26.6962 36.848 26.5682 36.736C26.4402 36.6187 26.3762 36.472 26.3762 36.296ZM27.6322 37.568V42H26.5042V37.568H27.6322ZM30.6446 37.512C31.2153 37.512 31.69 37.6667 32.0686 37.976C32.4526 38.2853 32.6926 38.7067 32.7886 39.24H31.5966C31.5486 39.0053 31.4393 38.8213 31.2686 38.688C31.098 38.5493 30.882 38.48 30.6206 38.48C30.322 38.48 30.0713 38.592 29.8686 38.816C29.6713 39.0347 29.5726 39.3573 29.5726 39.784C29.5726 40.2107 29.6713 40.536 29.8686 40.76C30.0713 40.9787 30.322 41.088 30.6206 41.088C30.882 41.088 31.098 41.0213 31.2686 40.888C31.4393 40.7493 31.5486 40.5627 31.5966 40.328H32.7886C32.6926 40.8613 32.4526 41.2827 32.0686 41.592C31.69 41.9013 31.2153 42.056 30.6446 42.056C30.2126 42.056 29.8286 41.9653 29.4926 41.784C29.1566 41.5973 28.8953 41.3333 28.7086 40.992C28.522 40.6507 28.4286 40.248 28.4286 39.784C28.4286 39.32 28.522 38.9173 28.7086 38.576C28.8953 38.2293 29.1566 37.9653 29.4926 37.784C29.8286 37.6027 30.2126 37.512 30.6446 37.512ZM35.3261 37.512C35.6995 37.512 36.0195 37.6 36.2861 37.776C36.5528 37.952 36.7421 38.1893 36.8541 38.488V37.568H37.9741V42H36.8541V41.072C36.7421 41.3707 36.5528 41.6107 36.2861 41.792C36.0195 41.968 35.6995 42.056 35.3261 42.056C34.9528 42.056 34.6168 41.9653 34.3181 41.784C34.0195 41.6027 33.7848 41.3413 33.6141 41C33.4488 40.6533 33.3661 40.248 33.3661 39.784C33.3661 39.32 33.4488 38.9173 33.6141 38.576C33.7848 38.2293 34.0195 37.9653 34.3181 37.784C34.6168 37.6027 34.9528 37.512 35.3261 37.512ZM35.6781 38.496C35.3261 38.496 35.0435 38.6107 34.8301 38.84C34.6168 39.0693 34.5101 39.384 34.5101 39.784C34.5101 40.184 34.6168 40.4987 34.8301 40.728C35.0435 40.952 35.3261 41.064 35.6781 41.064C36.0195 41.064 36.2995 40.9493 36.5181 40.72C36.7421 40.4853 36.8541 40.1733 36.8541 39.784C36.8541 39.3893 36.7421 39.0773 36.5181 38.848C36.2995 38.6133 36.0195 38.496 35.6781 38.496ZM40.1244 36.08V42H38.9964V36.08H40.1244ZM45.439 36.296C46.143 36.296 46.727 36.4773 47.191 36.84C47.655 37.2027 47.9617 37.696 48.111 38.32H46.927C46.8043 38.016 46.6123 37.776 46.351 37.6C46.095 37.424 45.7857 37.336 45.423 37.336C45.1243 37.336 44.855 37.4107 44.615 37.56C44.375 37.7093 44.1883 37.9227 44.055 38.2C43.9217 38.4773 43.855 38.8027 43.855 39.176C43.855 39.544 43.9217 39.8667 44.055 40.144C44.1883 40.4213 44.375 40.6347 44.615 40.784C44.855 40.9333 45.1243 41.008 45.423 41.008C45.7857 41.008 46.095 40.92 46.351 40.744C46.6123 40.568 46.8043 40.328 46.927 40.024H48.111C47.9617 40.648 47.655 41.1413 47.191 41.504C46.727 41.8667 46.143 42.048 45.439 42.048C44.9003 42.048 44.423 41.928 44.007 41.688C43.5963 41.4427 43.2763 41.1013 43.047 40.664C42.823 40.2267 42.711 39.7307 42.711 39.176C42.711 38.616 42.823 38.1173 43.047 37.68C43.2763 37.2427 43.5963 36.904 44.007 36.664C44.4177 36.4187 44.895 36.296 45.439 36.296ZM51.0053 37.512C51.4373 37.512 51.824 37.6027 52.1653 37.784C52.512 37.9653 52.784 38.2293 52.9813 38.576C53.1786 38.9173 53.2773 39.32 53.2773 39.784C53.2773 40.248 53.1786 40.6507 52.9813 40.992C52.784 41.3333 52.512 41.5973 52.1653 41.784C51.824 41.9653 51.4373 42.056 51.0053 42.056C50.5733 42.056 50.184 41.9653 49.8373 41.784C49.496 41.5973 49.2266 41.3333 49.0293 40.992C48.832 40.6507 48.7333 40.248 48.7333 39.784C48.7333 39.32 48.832 38.9173 49.0293 38.576C49.2266 38.2293 49.496 37.9653 49.8373 37.784C50.184 37.6027 50.5733 37.512 51.0053 37.512ZM51.0053 38.488C50.6906 38.488 50.424 38.6 50.2053 38.824C49.9866 39.0427 49.8773 39.3627 49.8773 39.784C49.8773 40.2053 49.9866 40.528 50.2053 40.752C50.424 40.9707 50.6906 41.08 51.0053 41.08C51.32 41.08 51.5866 40.9707 51.8053 40.752C52.024 40.528 52.1333 40.2053 52.1333 39.784C52.1333 39.3627 52.024 39.0427 51.8053 38.824C51.5866 38.6 51.32 38.488 51.0053 38.488ZM59.7145 37.504C60.2532 37.504 60.6772 37.672 60.9865 38.008C61.3012 38.3387 61.4585 38.8107 61.4585 39.424V42H60.3385V39.552C60.3385 39.2107 60.2505 38.9493 60.0745 38.768C59.9038 38.5813 59.6665 38.488 59.3625 38.488C59.0478 38.488 58.7972 38.5867 58.6105 38.784C58.4238 38.9813 58.3305 39.2693 58.3305 39.648V42H57.2105V39.552C57.2105 39.2107 57.1225 38.9493 56.9465 38.768C56.7758 38.5813 56.5385 38.488 56.2345 38.488C55.9198 38.488 55.6692 38.5867 55.4825 38.784C55.2958 38.9813 55.2025 39.2693 55.2025 39.648V42H54.0745V37.568H55.2025V38.408C55.3198 38.12 55.5038 37.8987 55.7545 37.744C56.0105 37.584 56.3065 37.504 56.6425 37.504C56.9998 37.504 57.3092 37.5893 57.5705 37.76C57.8372 37.9307 58.0372 38.176 58.1705 38.496C58.3092 38.192 58.5145 37.952 58.7865 37.776C59.0638 37.5947 59.3732 37.504 59.7145 37.504ZM65.0975 37.512C65.4708 37.512 65.8068 37.6027 66.1055 37.784C66.4042 37.9653 66.6362 38.2293 66.8015 38.576C66.9722 38.9173 67.0575 39.32 67.0575 39.784C67.0575 40.248 66.9722 40.6533 66.8015 41C66.6362 41.3413 66.4042 41.6027 66.1055 41.784C65.8068 41.9653 65.4708 42.056 65.0975 42.056C64.7242 42.056 64.4042 41.968 64.1375 41.792C63.8762 41.6107 63.6895 41.3707 63.5775 41.072V44.112H62.4495V37.568H63.5775V38.488C63.6895 38.1893 63.8762 37.952 64.1375 37.776C64.4042 37.6 64.7242 37.512 65.0975 37.512ZM64.7455 38.496C64.4042 38.496 64.1215 38.6133 63.8975 38.848C63.6788 39.0773 63.5695 39.3893 63.5695 39.784C63.5695 40.1733 63.6788 40.4853 63.8975 40.72C64.1215 40.9493 64.4042 41.064 64.7455 41.064C65.0975 41.064 65.3802 40.952 65.5935 40.728C65.8068 40.4987 65.9135 40.184 65.9135 39.784C65.9135 39.384 65.8068 39.0693 65.5935 38.84C65.3802 38.6107 65.0975 38.496 64.7455 38.496ZM69.5918 37.512C69.9651 37.512 70.2851 37.6 70.5518 37.776C70.8184 37.952 71.0078 38.1893 71.1198 38.488V37.568H72.2398V42H71.1198V41.072C71.0078 41.3707 70.8184 41.6107 70.5518 41.792C70.2851 41.968 69.9651 42.056 69.5918 42.056C69.2184 42.056 68.8824 41.9653 68.5838 41.784C68.2851 41.6027 68.0504 41.3413 67.8798 41C67.7144 40.6533 67.6318 40.248 67.6318 39.784C67.6318 39.32 67.7144 38.9173 67.8798 38.576C68.0504 38.2293 68.2851 37.9653 68.5838 37.784C68.8824 37.6027 69.2184 37.512 69.5918 37.512ZM69.9438 38.496C69.5918 38.496 69.3091 38.6107 69.0958 38.84C68.8824 39.0693 68.7758 39.384 68.7758 39.784C68.7758 40.184 68.8824 40.4987 69.0958 40.728C69.3091 40.952 69.5918 41.064 69.9438 41.064C70.2851 41.064 70.5651 40.9493 70.7838 40.72C71.0078 40.4853 71.1198 40.1733 71.1198 39.784C71.1198 39.3893 71.0078 39.0773 70.7838 38.848C70.5651 38.6133 70.2851 38.496 69.9438 38.496ZM75.902 37.504C76.414 37.504 76.822 37.672 77.126 38.008C77.43 38.344 77.582 38.816 77.582 39.424V42H76.462V39.552C76.462 39.2 76.3713 38.928 76.19 38.736C76.0087 38.5387 75.7607 38.44 75.446 38.44C75.126 38.44 74.87 38.544 74.678 38.752C74.486 38.96 74.39 39.2587 74.39 39.648V42H73.262V37.568H74.39V38.456C74.5073 38.1573 74.6993 37.9253 74.966 37.76C75.238 37.5893 75.55 37.504 75.902 37.504ZM79.3345 37.568L80.5425 40.576L81.6625 37.568H82.9025L80.1905 44.112H78.9425L79.9425 41.872L78.0785 37.568H79.3345Z" fill="black"/>
</svg>
