<svg width="78" height="78" viewBox="0 0 78 78" fill="none" xmlns="http://www.w3.org/2000/svg">
<rect width="78" height="78" rx="16" fill="#00BF63"/>
<path d="M37.9159 14L36.2681 17.7454C35.4152 17.7972 34.5665 17.9042 33.7275 18.0655L31.207 14.8252L28.4902 15.7448L28.4767 19.8674C27.3259 20.4563 26.223 21.1683 25.1812 21.9993L21.3416 20.2783L19.3759 22.3599L21.3415 26.0716C20.7144 26.9616 20.1633 27.9024 19.694 28.884L15.4784 28.9985L14.6225 31.7232L18.0261 34.2192C17.8631 35.2302 17.7836 36.2518 17.779 37.2742L14 39.1805L14.3958 42.0098L18.5437 42.8181C18.7916 43.6825 19.0991 44.5288 19.4639 45.351L16.7304 48.7294L18.2561 51.1476L22.5055 50.1574C22.7743 50.4724 23.053 50.779 23.341 51.0768C23.9426 51.6963 24.5834 52.2768 25.2594 52.8148L24.4339 57.052L26.9173 58.4801L30.1617 55.6677C31.09 56.0392 32.0459 56.3387 33.0206 56.5636L34.0796 60.703L36.9383 60.9355L38.657 57.0316C39.8446 56.9605 41.0283 56.7837 42.1924 56.4994L44.9228 59.6488L47.5853 58.5878L47.5073 56.9912L41.2924 52.2995C39.4831 52.7549 37.6069 52.8768 35.7642 52.6698C32.3264 52.284 29.0227 50.7384 26.43 48.0691C20.5039 41.9671 20.6733 32.2607 26.8022 26.3612C29.7708 23.5035 33.5892 22.0539 37.4119 22.0128C41.4815 21.9691 45.5548 23.5213 48.6104 26.6676C53.5835 31.7885 54.2613 39.492 50.7283 45.3241L54.1894 47.9378C54.6197 47.2659 55.0084 46.5686 55.3532 45.8495L59.5381 45.7349L60.3941 43.0102L57.0144 40.5312C57.1774 39.5119 57.26 38.4815 57.2613 37.4493L61.0167 35.5497L60.621 32.7204L56.4767 31.912C56.128 30.7169 55.6658 29.5575 55.0963 28.4495L57.5658 25.0443L55.9148 22.7101L51.8485 23.8855C51.7974 23.8316 51.7478 23.777 51.696 23.7239C51.056 23.0645 50.371 22.45 49.6458 21.8847L50.424 17.8833L47.9404 16.4553L44.8549 19.1298C43.8561 18.7296 42.8302 18.4181 41.7897 18.1867L40.7782 14.2324L37.9159 14ZM31.6198 30.5445C30.4999 30.5572 29.3899 30.831 28.3719 31.3291L33.2675 35.0276C34.7481 36.1459 35.1681 38.2713 34.0319 39.7632C32.8953 41.256 30.713 41.4804 29.2109 40.3461L24.3187 36.6511C23.8178 39.3233 24.7664 42.1548 27.0896 43.9095C29.1731 45.4828 31.8471 45.7774 34.1505 44.9537L34.668 44.7683L35.1043 45.0985L49.7404 56.153L50.1767 56.483L50.1394 57.0287C49.9622 59.4592 50.9611 61.9447 53.0456 63.519C55.3689 65.2737 58.3662 65.4192 60.8167 64.2196L55.9248 60.5249C54.4227 59.3903 54.0538 57.2369 55.1907 55.7454C56.3275 54.2537 58.4968 54.085 59.9778 55.203L64.87 58.8981C65.3697 56.2268 64.425 53.394 62.1025 51.6397C60.0116 50.0598 57.3587 49.7468 55.0688 50.5583L54.5546 50.7402L54.1183 50.4101L39.4822 39.3558L39.0459 39.0256L39.0832 38.4835C39.251 36.0706 38.2333 33.6124 36.1431 32.0333C34.7851 31.0076 33.1959 30.5266 31.6198 30.5445ZM36.336 40.2718L54.0776 53.6738L52.8562 55.2804L35.1112 41.8751L36.336 40.2718Z" fill="black"/>
</svg>
