<svg width="100" height="100" viewBox="0 0 100 100" fill="none" xmlns="http://www.w3.org/2000/svg">
<path d="M78.8663 0H21.1337C9.50681 0 0 9.50893 0 21.1161V78.8616C0 90.4911 9.50681 100 21.1337 100H78.8663C90.4932 100 100 90.4911 100 78.8839V21.1161C100 9.50893 90.4932 0 78.8663 0ZM67.7081 70.625C61.4818 81.3839 47.6456 85.1116 36.8668 78.9286C31.7563 87.8125 24.615 80.8482 27.4269 75.9821L30.9306 69.9107C32.2473 67.6116 35.2154 66.808 37.5139 68.1473C41.6648 70.558 37.4916 68.125 41.6425 70.5357C47.8018 74.0848 55.7911 71.942 59.3617 65.7812C62.9101 59.6205 60.7677 51.6295 54.6083 48.058C50.636 45.7813 54.4744 47.9688 50.4575 45.692C44.9676 42.5223 49.6987 34.1071 55.2778 37.3214C59.4287 39.7321 55.2555 37.2991 59.4064 39.7098C70.2075 45.9598 73.9344 59.8661 67.7081 70.625ZM72.5731 24.0179C68.7793 30.6027 68.9355 30.4464 68.333 31.0491C66.8824 32.5 64.6954 32.9911 62.4191 31.8527C58.2682 29.442 62.4414 31.875 58.2906 29.4643C52.1312 25.9152 44.1419 28.058 40.5713 34.2188C37.0007 40.3795 39.1654 48.3705 45.3247 51.942C45.3247 51.942 49.4532 54.308 49.4756 54.308C54.9654 57.4777 50.2343 65.8929 44.6552 62.6786C40.5044 60.2679 44.6775 62.7009 40.5267 60.2902C29.7701 54.0848 26.0433 40.1786 32.2473 29.3973C38.4736 18.6384 52.3098 14.9107 63.0886 21.0938L64.1598 19.2188C67.351 13.6607 75.7643 18.4821 72.5731 24.0179Z" fill="#00BF63"/>
</svg>
