<svg width="78" height="78" viewBox="0 0 78 78" fill="none" xmlns="http://www.w3.org/2000/svg">
<path d="M61.5157 0H16.4843C7.41531 0 0 7.41696 0 16.4705V61.5121C0 70.583 7.41531 78 16.4843 78H61.5157C70.5847 78 78 70.583 78 61.5295V16.4705C78 7.41696 70.5847 0 61.5157 0ZM52.8123 55.0875C47.9558 63.4795 37.1636 66.3871 28.7561 61.5643C24.7699 68.4938 19.1997 63.0616 21.393 59.2661L24.1259 54.5304C25.1529 52.7371 27.468 52.1103 29.2609 53.1549C32.4986 55.0353 29.2435 53.1375 32.4811 55.0179C37.2854 57.7862 43.5171 56.1147 46.3022 51.3094C49.0699 46.504 47.3988 40.271 42.5945 37.4853C39.4961 35.7094 42.4901 37.4156 39.3568 35.6397C35.0748 33.1674 38.765 26.6036 43.1167 29.1107C46.3544 30.9911 43.0993 29.0933 46.337 30.9737C54.7619 35.8487 57.6688 46.6955 52.8123 55.0875ZM56.607 18.7339C53.6479 23.8701 53.7697 23.7482 53.2997 24.2183C52.1683 25.35 50.4624 25.733 48.6869 24.8451C45.4492 22.9647 48.7043 24.8625 45.4666 22.9821C40.6624 20.2138 34.4307 21.8853 31.6456 26.6906C28.8605 31.496 30.549 37.729 35.3533 40.5147C35.3533 40.5147 38.5735 42.3603 38.5909 42.3603C42.873 44.8326 39.1828 51.3964 34.8311 48.8893C31.5934 47.0089 34.8485 48.9067 31.6108 47.0263C23.2207 42.1862 20.3138 31.3393 25.1529 22.9299C30.0094 14.5379 40.8016 11.6304 49.2091 16.4531L50.0446 14.9906C52.5338 10.6554 59.0962 14.4161 56.607 18.7339Z" fill="#00BF63"/>
</svg>
